<svg width="94" height="8" viewBox="0 0 94 8" fill="none" xmlns="http://www.w3.org/2000/svg">
<rect x="3" width="91" height="8" fill="#6555FE"/>
<path fill-rule="evenodd" clip-rule="evenodd" d="M87.8867 0H79.7281L76.8164 8H84.975L87.8867 0ZM90.2959 8H94V0H93.2076L90.2959 8ZM66.2486 0H74.4072L71.4955 8H63.3369L66.2486 0ZM60.9277 0H52.7691L49.8573 8H58.016L60.9277 0ZM39.2896 0H47.4482L44.5364 8H36.3778L39.2896 0ZM33.9687 0H25.81L22.8983 8H31.0569L33.9687 0ZM12.3305 0H20.4891L17.5774 8H9.41878L12.3305 0ZM7.00965 0H0V8H4.09789L7.00965 0Z" fill="#4734FE"/>
</svg>